<svg xmlns="http://www.w3.org/2000/svg" viewBox="0 0 712.41 105.04"><defs><style>.cls-1{fill:#fff;}</style></defs><title>kratex-white-logo</title><g id="Layer_2" data-name="Layer 2"><g id="Layer_1-2" data-name="Layer 1"><polygon class="cls-1" points="272.36 64.83 301.59 104.66 246.7 104.66 272.36 64.83"/><polygon class="cls-1" points="346.67 50.51 313.25 96.03 280.77 51.77 314.13 0 346.67 50.51"/><polygon class="cls-1" points="381.56 104.66 324.28 104.66 354.79 63.11 381.56 104.66"/><path class="cls-1" d="M0,8.38H36.61l-.74,34.88L77.15,8.38h44.14L77.68,45.46l46,58.41H81.75L50.46,65.46,35.87,78.73l.74,25.14H0Z"/><path class="cls-1" d="M126.92,8.38H193.8a76.54,76.54,0,0,1,22.93,3.2,34.38,34.38,0,0,1,16.41,10.57q6.2,7.38,6.2,19.17a21.1,21.1,0,0,1-3.2,11,27,27,0,0,1-8.74,8.83,26.66,26.66,0,0,1-12.13,4.14c3.32,3.43,25.33,38.31,25.6,38.54h-39.7c-.22-.23-16.27-24.47-22.56-31.21h-16.7l.88,31.21H126.92Zm62.21,40.54q5.53,0,8.63-1.81c2.07-1.2,2.82-1.91,2.82-4.13,0-3.79-.88-3.79-3-5.13s-5.16-1.19-8.94-1.19H162.79V48.92Z"/><path class="cls-1" d="M395.47,38.54H364.25V9.91h99V38.54H432V105H395.47Z"/><path class="cls-1" d="M508.08,77.8V68.32h35.1l16.09-22H508.08V37.15h64V9.91H471.62V105H574.51V77.8Z"/><path class="cls-1" d="M616.69,56.41,576.3,9.91h45l21.59,27.88L668.5,9.91h40.85l-40.05,46L712.41,105H667.5L643,74.39,615.42,105h-41Z"/></g></g></svg>